<svg width="386" height="986" viewBox="0 0 386 986" fill="none" xmlns="http://www.w3.org/2000/svg">
<rect x="4.14286" y="4.14286" width="290.571" height="367.714" rx="5.85714" fill="#5DA6B1" stroke="#5DA6B1" stroke-width="7.71429"/>
<g clip-path="url(#clip0_1_28)">
<path d="M325 483V434L366 464L349.5 467.5L361.5 493.5L351.5 497L337.5 472.5L325 483Z" fill="white"/>
<path d="M350.157 501.714L337.429 476.472L321.714 489.786V424.571L373.143 465.955L353.24 469.292L365.779 494.029L350.157 501.714ZM339.554 466.425L353.034 493.103L357.097 491.12L343.555 464.4L358.444 461.992L328.143 437.695V476.215L339.554 466.425Z" fill="#24484E"/>
</g>
<rect x="4.14286" y="613.571" width="290.571" height="367.714" rx="5.85714" fill="#5DA6B1" stroke="#5DA6B1" stroke-width="7.71429"/>
<g clip-path="url(#clip1_1_28)">
<path d="M204 909.5V860.5L245 890.5L228.5 894L240.5 920L230.5 923.5L216.5 899L204 909.5Z" fill="white"/>
<path d="M229.3 928.571L216.572 903.33L200.857 916.643V851.429L252.286 892.812L232.383 896.149L244.922 920.886L229.3 928.571ZM218.696 893.282L232.177 919.96L236.24 917.977L222.698 891.257L237.587 888.849L207.286 864.552V903.072L218.696 893.282Z" fill="#24484E"/>
</g>
<defs>
<clipPath id="clip0_1_28">
<rect width="77.1429" height="77.1429" fill="white" transform="translate(308.857 424.571)"/>
</clipPath>
<clipPath id="clip1_1_28">
<rect width="77.1429" height="77.1429" fill="white" transform="translate(188 851.429)"/>
</clipPath>
</defs>
</svg>
