<svg width="28" height="28" viewBox="0 0 28 28" fill="none" xmlns="http://www.w3.org/2000/svg">
<path d="M3.72658 15.3944C2.74816 13.745 2.40551 11.7952 2.76297 9.91104C3.12043 8.02691 4.15341 6.33808 5.66793 5.16167C7.18246 3.98526 9.07435 3.4022 10.9883 3.52197C12.9023 3.64174 14.7068 4.45611 16.0628 5.81216C17.4189 7.1682 18.2333 8.97264 18.353 10.8866C18.4728 12.8006 17.8898 14.6925 16.7134 16.207C15.537 17.7216 13.8481 18.7546 11.964 19.112C10.0799 19.4695 8.13005 19.1269 6.48067 18.1485L6.48069 18.1484L3.76082 18.9255C3.64829 18.9576 3.52921 18.9591 3.41592 18.9297C3.30263 18.9004 3.19925 18.8413 3.11649 18.7585C3.03374 18.6758 2.97462 18.5724 2.94526 18.4591C2.91591 18.3458 2.91738 18.2267 2.94953 18.1142L3.72664 15.3943L3.72658 15.3944Z" stroke="#6C6B6B" stroke-width="2" stroke-linecap="round" stroke-linejoin="round"/>
<path d="M10.0688 19.2383C10.456 20.3373 11.082 21.3367 11.9019 22.1647C12.7217 22.9926 13.715 23.6284 14.8102 24.0263C15.9053 24.4242 17.0751 24.5743 18.2352 24.4657C19.3953 24.3572 20.5169 23.9927 21.5192 23.3985L21.5192 23.3984L24.2391 24.1755C24.3516 24.2077 24.4707 24.2091 24.584 24.1798C24.6973 24.1504 24.8007 24.0913 24.8834 24.0085C24.9662 23.9258 25.0253 23.8224 25.0546 23.7091C25.084 23.5958 25.0825 23.4768 25.0504 23.3642L24.2733 20.6443L24.2733 20.6444C24.9638 19.4799 25.3425 18.1572 25.3729 16.8037C25.4033 15.4503 25.0844 14.1119 24.4469 12.9176C23.8094 11.7233 22.8749 10.7134 21.7335 9.98546C20.5921 9.25749 19.2823 8.83598 17.9306 8.7616" stroke="#6C6B6B" stroke-width="2" stroke-linecap="round" stroke-linejoin="round"/>
</svg>
