<svg width="28" height="28" viewBox="0 0 28 28" fill="none" xmlns="http://www.w3.org/2000/svg">
<path d="M18.375 2.625H9.625V7H18.375V2.625Z" stroke="#6C6B6B" stroke-width="2" stroke-linecap="round" stroke-linejoin="round"/>
<path d="M18.375 4.375H21.875C22.1071 4.375 22.3296 4.46719 22.4937 4.63128C22.6578 4.79538 22.75 5.01794 22.75 5.25V23.625C22.75 23.8571 22.6578 24.0796 22.4937 24.2437C22.3296 24.4078 22.1071 24.5 21.875 24.5H6.125C5.89294 24.5 5.67038 24.4078 5.50628 24.2437C5.34219 24.0796 5.25 23.8571 5.25 23.625V5.25C5.25 5.01794 5.34219 4.79538 5.50628 4.63128C5.67038 4.46719 5.89294 4.375 6.125 4.375H9.625" stroke="#6C6B6B" stroke-width="2" stroke-linecap="round" stroke-linejoin="round"/>
<path d="M10.5 16.625H17.5" stroke="#6C6B6B" stroke-width="2" stroke-linecap="round" stroke-linejoin="round"/>
<path d="M10.5 13.125H17.5" stroke="#6C6B6B" stroke-width="2" stroke-linecap="round" stroke-linejoin="round"/>
</svg>
