<svg width="28" height="28" viewBox="0 0 28 28" fill="none" xmlns="http://www.w3.org/2000/svg">
<path d="M10.1146 13.6517C11.0222 15.5072 12.5264 17.0045 14.3861 17.9037C14.5221 17.9682 14.6726 17.9961 14.8228 17.9848C14.9729 17.9734 15.1175 17.9231 15.2423 17.8389L17.9806 16.013C18.1017 15.9322 18.241 15.883 18.386 15.8696C18.5309 15.8563 18.6769 15.8794 18.8107 15.9367L23.9335 18.1322C24.1075 18.2061 24.2528 18.3346 24.3475 18.4983C24.4421 18.6619 24.481 18.852 24.4583 19.0397C24.2964 20.3067 23.6782 21.4712 22.7195 22.3152C21.7608 23.1593 20.5273 23.6249 19.25 23.625C15.3049 23.625 11.5214 22.0578 8.73179 19.2682C5.94218 16.4786 4.375 12.6951 4.375 8.74999C4.37507 7.47268 4.84071 6.23919 5.68475 5.28047C6.52878 4.32176 7.69332 3.70357 8.96033 3.54166C9.14803 3.51894 9.33803 3.55784 9.5017 3.6525C9.66538 3.74716 9.79385 3.89244 9.86778 4.06646L12.0652 9.19373C12.122 9.32635 12.1452 9.47097 12.1326 9.61471C12.12 9.75845 12.0721 9.89684 11.9931 10.0176L10.1735 12.7979C10.0906 12.9229 10.0417 13.0673 10.0314 13.217C10.021 13.3666 10.0497 13.5164 10.1146 13.6517V13.6517Z" stroke="#6C6B6B" stroke-width="2" stroke-linecap="round" stroke-linejoin="round"/>
</svg>
